<svg width="14" height="11" viewBox="0 0 14 11" fill="none" xmlns="http://www.w3.org/2000/svg">
<path d="M6.11724 10.0009C6.1784 10.0912 6.26024 10.1651 6.3557 10.2161C6.45117 10.2672 6.5574 10.2938 6.66524 10.2938C6.77309 10.2938 6.87932 10.2672 6.97478 10.2161C7.07025 10.1651 7.15208 10.0912 7.21324 10.0009L13.2132 1.18476C13.2827 1.08308 13.3234 0.963975 13.331 0.840396C13.3386 0.716818 13.3127 0.593489 13.2562 0.483811C13.1997 0.374132 13.1148 0.282298 13.0106 0.218287C12.9064 0.154275 12.787 0.120533 12.6652 0.120728H0.665241C0.543803 0.121239 0.4248 0.155414 0.321028 0.219579C0.217256 0.283744 0.132643 0.375471 0.0762868 0.484896C0.0199308 0.594321 -0.00603544 0.717303 0.00118053 0.840617C0.00839651 0.963931 0.0485217 1.08291 0.117241 1.18476L6.11724 10.0009Z" fill="black"/>
</svg>
